<?xml version="1.0" encoding="utf-8"?>
<!-- Generator: Adobe Illustrator 24.3.0, SVG Export Plug-In . SVG Version: 6.00 Build 0)  -->
<svg version="1.1" id="Lager_1" xmlns="http://www.w3.org/2000/svg" xmlns:xlink="http://www.w3.org/1999/xlink" x="0px" y="0px"
	 viewBox="0 0 488.1 516.5" style="enable-background:new 0 0 488.1 516.5;" xml:space="preserve">
<style type="text/css">
	.st0{fill:#FFFFFF;}
</style>
<g>
	<g>
		<path class="st0" d="M41.3,459.9h-8.5l-22.6-25.3v25.3H0V419h9.3l21.9,24.1V419h10.1V459.9z"/>
		<path class="st0" d="M66.8,446.5v6.7c-1.3,1.3-3.2,2-4.6,2c-1.7,0-3-1.3-3-2.9c0-2,1.4-3.4,4.6-4.6l2.3-0.9L66.8,446.5z
			 M80.3,453.1l-0.4,0.2c-1.6,0.9-2.3,1.1-3,1.1c-1.1,0-1.4-0.5-1.4-2.2v-10.9c0-2.6-0.2-3.9-0.8-5c-1.6-2.8-5.5-4.5-10.9-4.5
			c-1.9,0-4.4,0.3-6.1,0.8c-1.8,0.5-4.3,1.6-5.9,2.6v7.1c2.8-2.9,6.7-4.7,10.2-4.7c3.3,0,4.8,1.4,4.8,4.3v0.4l-0.4,0.1l-1.3,0.4
			l-1.7,0.5c-5.3,1.7-6.8,2.2-8.5,3.1c-2.8,1.6-4.4,4.1-4.4,6.8c0,4.2,3.3,7.3,7.7,7.3c3,0,5.5-0.8,8.5-2.7l0.6-0.4
			c0.6,2.2,2,3.1,4.9,3.1c2.3,0,5.8-1,8.2-2.5L80.3,453.1L80.3,453.1z"/>
		<path class="st0" d="M106.1,438.2h-10v6.1v1.7v0.8c0,5.8,0.8,7.3,4.1,7.3c1.8,0,3.2-0.4,5.3-1.4c0.1,0,0.3-0.1,0.5-0.2v6.3
			c-3.1,1.3-5.3,1.7-8.1,1.7c-3.9,0-7.1-1.5-9-4.1c-1.3-1.9-1.7-3.6-1.7-8v-10h-4v-1.6l11.6-13.1H96v8.7h10L106.1,438.2L106.1,438.2
			z"/>
		<path class="st0" d="M121.7,459.9h-8.3v-27.7h8.3V459.9z M117.6,427.9c-2.6,0-4.8-2.1-4.8-4.6c0-2.8,2.2-4.9,4.9-4.9
			c2.6,0,4.7,2.2,4.7,4.9C122.4,425.8,120.3,427.9,117.6,427.9z"/>
		<path class="st0" d="M150.9,446c-0.1,3.3-0.5,5.2-1.6,6.7c-1.1,1.6-2.7,2.3-4.6,2.3c-4.1,0-6.3-2.9-6.3-8.6c0-6.4,2-9.4,6.1-9.4
			c4.3,0,6.4,2.9,6.4,8.6V446L150.9,446z M160.3,446.2c0-3.8-1-6.7-3-9.1c-2.9-3.5-7.4-5.4-12.5-5.4c-9.1,0-15.7,6.2-15.7,14.5
			c0,8.4,6.5,14.3,15.7,14.3C154,460.4,160.3,454.7,160.3,446.2z"/>
		<path class="st0" d="M177.2,436.2c2.8-3.1,5.5-4.5,9-4.5c4.1,0,7.4,2,9.1,5.4c0.8,1.7,1.1,3,1.1,6.5v16.3h-8.8v-15.6
			c0-4.9-1.1-6.5-4.3-6.5c-2.2,0-4.6,1.7-6.1,4.3v17.8h-8.7v-27.7h8.7V436.2z"/>
		<path class="st0" d="M220.7,446.5v6.7c-1.3,1.3-3.2,2-4.6,2c-1.7,0-3-1.3-3-2.9c0-2,1.4-3.4,4.6-4.6l2.3-0.9L220.7,446.5z
			 M234.2,453.1l-0.4,0.2c-1.6,0.9-2.3,1.1-3,1.1c-1.1,0-1.4-0.5-1.4-2.2v-10.9c0-2.6-0.2-3.9-0.8-5c-1.6-2.8-5.5-4.5-10.9-4.5
			c-1.9,0-4.4,0.3-6.1,0.8c-1.8,0.5-4.3,1.6-5.9,2.6v7.1c2.8-2.9,6.7-4.7,10.2-4.7c3.3,0,4.8,1.4,4.8,4.3v0.4l-0.4,0.1l-1.3,0.4
			l-1.7,0.5c-5.3,1.7-6.8,2.2-8.5,3.1c-2.8,1.6-4.4,4.1-4.4,6.8c0,4.2,3.3,7.3,7.7,7.3c3,0,5.5-0.8,8.5-2.7l0.6-0.4
			c0.6,2.2,2,3.1,4.9,3.1c2.3,0,5.8-1,8.2-2.5v-4.9H234.2z"/>
		<path class="st0" d="M249.2,459.9h-8.8V419h8.8V459.9z"/>
		<path class="st0" d="M306.5,459.9h-31.2V419h10.3v33.3h20.9L306.5,459.9L306.5,459.9z"/>
		<path class="st0" d="M322.2,459.9h-8.3v-27.7h8.3V459.9z M318.2,427.9c-2.6,0-4.8-2.1-4.8-4.6c0-2.8,2.2-4.9,4.9-4.9
			c2.6,0,4.7,2.2,4.7,4.9C323,425.8,320.9,427.9,318.2,427.9z"/>
		<path class="st0" d="M340.8,439.4c1.4-1.1,3.4-1.8,5-1.8c4.3,0,6.9,3.1,6.9,8.3s-2.6,8.3-6.8,8.3c-1.7,0-3.3-0.6-5.2-2v-12.8
			H340.8z M340.8,419h-8.7v40.9h8.7v-2.1c2.4,1.7,5,2.6,7.7,2.6c7.6,0,12.9-5.9,12.9-14.5c0-8.5-5.5-14.3-13.5-14.3
			c-2.7,0-4.4,0.5-7.1,2.1V419z"/>
		<path class="st0" d="M378.6,440.2h0.1c0.8-2.1,2-3.9,3.2-5.5c1.6-1.9,3.5-2.9,5.6-2.9c1.7,0,3.3,0.7,5.8,2.5l-2.4,7.7
			c-2-1.4-3.5-2-5.1-2c-2.7,0-5.3,2.7-6.7,6.7l-0.3,1l-0.2,0.4V460h-8.7v-27.7h8.7V440.2z"/>
		<path class="st0" d="M412.5,446.5v6.7c-1.3,1.3-3.2,2-4.6,2c-1.7,0-3-1.3-3-2.9c0-2,1.4-3.4,4.6-4.6l2.3-0.9L412.5,446.5z
			 M426,453.1l-0.4,0.2c-1.6,0.9-2.3,1.1-3,1.1c-1.1,0-1.4-0.5-1.4-2.2v-10.9c0-2.6-0.2-3.9-0.8-5c-1.6-2.8-5.5-4.5-10.9-4.5
			c-1.9,0-4.4,0.3-6.1,0.8c-1.8,0.5-4.3,1.6-5.9,2.6v7.1c2.8-2.9,6.7-4.7,10.2-4.7c3.3,0,4.8,1.4,4.8,4.3v0.4l-0.4,0.1l-1.3,0.4
			l-1.7,0.5c-5.3,1.7-6.8,2.2-8.5,3.1c-2.8,1.6-4.4,4.1-4.4,6.8c0,4.2,3.3,7.3,7.7,7.3c3,0,5.5-0.8,8.5-2.7l0.6-0.4
			c0.6,2.2,2,3.1,4.9,3.1c2.3,0,5.8-1,8.2-2.5v-4.9H426z"/>
		<path class="st0" d="M440.9,440.2h0.1c0.8-2.1,2-3.9,3.2-5.5c1.6-1.9,3.5-2.9,5.6-2.9c1.7,0,3.3,0.7,5.8,2.5l-2.4,7.7
			c-2-1.4-3.5-2-5.1-2c-2.7,0-5.3,2.7-6.7,6.7l-0.3,1l-0.2,0.4V460h-8.7v-27.7h8.7V440.2z"/>
		<path class="st0" d="M469.7,473.2h-9.3l8.1-17.8l-10.8-23.2h9.3l5.8,13.7l6.2-13.7h9.1L469.7,473.2z"/>
		<path class="st0" d="M111.4,502c-0.1,3.3-0.5,5.2-1.6,6.7c-1.1,1.6-2.7,2.3-4.6,2.3c-4.1,0-6.3-2.9-6.3-8.6c0-6.4,2-9.4,6.1-9.4
			c4.3,0,6.4,2.9,6.4,8.6L111.4,502L111.4,502z M120.8,502.2c0-3.8-1-6.7-3-9.1c-2.9-3.5-7.4-5.4-12.5-5.4
			c-9.1,0-15.7,6.2-15.7,14.5c0,8.4,6.5,14.3,15.7,14.3C114.5,516.4,120.8,510.7,120.8,502.2z"/>
		<path class="st0" d="M142.9,488.2v5.8h-4v21.8h-8.7v-21.7h-4v-5.8h4v-0.7c0.2-3.9,0.7-5.9,1.9-7.9c0.7-1.3,1.8-2.4,3.1-3.2
			c2-1.3,4.3-1.9,7.2-1.9c1,0,1.9,0.1,2.8,0.2l2,0.3l0.4,0.1v7l-0.5-0.1c-1.4-0.2-2.5-0.3-3.4-0.3c-3.5,0-4.9,1.6-4.9,5.8v0.8h4.1
			V488.2z"/>
		<path class="st0" d="M197,486l-0.7-0.4c-4.9-2.5-8.9-3.6-12.5-3.6c-3.7,0-6.1,1.3-6.1,3.3c0,1.7,2.1,3.2,6.7,4.9l3.2,1.2
			c7.9,2.8,11.3,6.7,11.3,12.9c0,7.3-6.4,12.1-16,12.1c-3.5,0-6.7-0.7-10.8-2.2c-2.4-1-2.6-1-3.7-1.7v-8.8c3,1.9,4.6,2.8,6.6,3.5
			c2.6,1.1,5,1.6,7.6,1.6c4,0,6.2-1.3,6.2-3.7c0-2-1.4-3.2-5.5-4.6l-2.2-0.8c-3.2-1.1-4.9-1.9-6.8-2.9c-1.6-0.8-2.8-1.9-3.8-3
			c-1.7-1.9-2.7-4.7-2.7-7.6c0-7,6.1-11.6,15.5-11.6c4.6,0,8.6,0.9,13.9,3.2v8.2H197z"/>
		<path class="st0" d="M237.9,516.4h-4.1l-6.7-15.1l-7,15.1H216l-12.5-28.2h8.9l5.8,14.7l6.2-14.7h5.2l6.1,14.7l5.9-14.7h8.8
			L237.9,516.4z"/>
		<path class="st0" d="M264.3,498.9c0.3-3.5,2.7-5.9,5.9-5.9c3.4,0,5.7,2.3,6.1,5.9H264.3z M283.5,507.2l-0.4,0.3
			c-3.9,2.6-6.5,3.5-9.9,3.5c-5.5,0-8.8-2.8-9.1-7.6H284v-0.8c0-8.9-5.8-15-14.2-15c-8.4,0-14.6,6.1-14.6,14.4
			c0,8.6,6.1,14.3,15.2,14.3c5.5,0,9.9-1.3,13.1-3.7V507.2z"/>
		<path class="st0" d="M311.1,508.3c-1.7,1.4-3.3,2-5.1,2c-4,0-6.5-3.1-6.5-8.2c0-5.5,2.5-8.6,6.8-8.6c1.6,0,3.6,0.7,4.9,1.6
			L311.1,508.3L311.1,508.3z M319.8,475h-8.6v14.5c-2.3-1.1-4.7-1.7-7.2-1.7c-7.9,0-13.4,5.9-13.4,14.3c0,8.3,5.5,14.4,12.9,14.4
			c2.9,0,5.2-0.8,7.7-2.8v2.2h8.6V475z"/>
		<path class="st0" d="M337.2,498.9c0.3-3.5,2.7-5.9,5.9-5.9c3.4,0,5.7,2.3,6.1,5.9H337.2z M356.4,507.2l-0.4,0.3
			c-3.9,2.6-6.5,3.5-9.9,3.5c-5.5,0-8.8-2.8-9.1-7.6h19.9v-0.8c0-8.9-5.8-15-14.2-15c-8.4,0-14.6,6.1-14.6,14.4
			c0,8.6,6.1,14.3,15.2,14.3c5.5,0,9.9-1.3,13.1-3.7V507.2z"/>
		<path class="st0" d="M373.6,492.2c2.8-3.1,5.5-4.5,9-4.5c4.1,0,7.4,2,9.1,5.4c0.8,1.7,1.1,3,1.1,6.5v16.3H384v-15.6
			c0-4.9-1.1-6.5-4.3-6.5c-2.2,0-4.6,1.7-6.1,4.3v17.8h-8.7v-27.7h8.7L373.6,492.2L373.6,492.2z"/>
		<path class="st0" d="M124.3,70.1l28.3,1.2l-8.6,9.5l-25.1-0.9l14.2,12.9l-6.9,7.6L95.9,72.9l6.9-7.6l13.7,12.5l0.1-0.1l-5.1-22
			l7.5-8.3L124.3,70.1z"/>
		<path class="st0" d="M195.9,28.2c0.7,1.5,1.2,3,1.6,4.2c1,2.9,1,6.1,0.3,8.7c-1,3.4-3.7,7.3-6.9,9.6c-1.7,1.2-3.8,2.4-6.1,3.4
			c-4.8,2.2-8.5,2.8-12.6,2.4c-2.2-0.3-4.3-1-6.1-2c-3.3-1.8-5.5-4.6-7.6-9.4l-9.2-20.6l9.4-4.2l8.3,18.5c1.6,3.7,2.8,5.4,4.5,6.7
			c2.8,2.2,6.5,2.5,10.2,0.9c4.5-2,7-6.5,6-10.8c-0.2-0.9-0.4-1.7-0.8-2.5l-1.2-2.7l-8.3-18.3l9.4-4.2L195.9,28.2z"/>
		<path class="st0" d="M265.4,41.6l-8.5-0.1l-22.2-25.7l-0.4,25.3l-10.1-0.2L224.8,0l9.3,0.1l21.5,24.4L256,0.4l10.1,0.2L265.4,41.6
			z"/>
		<path class="st0" d="M334.1,37.4l-0.5-0.6c-3.3-4.1-7.4-7.4-11.6-9.4c-8.3-4-15.6-2.1-19,5.1c-3.1,6.4-0.2,13.4,6.9,16.8
			c2.3,1.1,4.6,1.7,7.2,1.9l2.1-4.3l-5.3-2.6l3.3-6.9l14.6,7.1l-7.3,15.2c-5.2,1.3-12,0.4-18.2-2.6c-12.8-6.2-18.1-18.4-12.8-29.5
			c5.4-11.3,18.1-14.6,31.4-8.2c3.2,1.5,6.4,3.6,8.9,5.8c1.6,1.4,2.3,2.1,4.1,4.2L334.1,37.4z"/>
		<path class="st0" d="M360.2,102l-20.7-23.4l30.6-27.1l6.8,7.7L352,81.3l13.8,15.6L360.2,102z"/>
		<path class="st0" d="M98.3,150.3l-0.7,4c-0.8,4.7-2.5,6.4-5.6,5.8c-3.2-0.6-4.1-2.7-3.2-7.6l0.7-3.8L98.3,150.3z M107.3,141.4
			L67,134.1l-3.4,18.5c-0.6,3.5-0.7,5.7-0.4,7.7c0.8,5.3,4.3,8.9,9.4,9.9c5.3,1,9.2-1.2,12-6.6c1,3.7,3.7,6.3,7.1,6.9
			c4.2,0.8,8.5-1.7,10.7-6c1.1-2.1,1.4-3.5,2.2-7.7L107.3,141.4z M82.2,147.4l-0.8,4.5c-1.2,6.8-2.7,8.7-6.5,8
			c-3.6-0.6-4.5-3-3.3-9.3l0.9-5L82.2,147.4z"/>
		<path class="st0" d="M63.6,212.4l-1.4-10.2l40.6-5.5l1.4,10.2L63.6,212.4z"/>
		<path class="st0" d="M107.7,243.3l1.8,3.6c2.1,4.2,1.8,6.6-1,8c-2.9,1.4-4.9,0.3-7.1-4.2l-1.7-3.4L107.7,243.3z M109.6,230.8
			L73,249.1l8.3,16.8c1.6,3.2,2.8,5,4.3,6.4c3.8,3.8,8.8,4.6,13.4,2.3c4.8-2.4,6.6-6.5,5.7-12.5c3,2.3,6.8,2.8,9.8,1.3
			c3.8-1.9,5.8-6.5,5-11.2c-0.4-2.3-0.9-3.6-2.9-7.5L109.6,230.8z M93.1,250.6l2,4.1c3.1,6.2,3,8.6-0.4,10.3
			c-3.3,1.6-5.4,0.3-8.2-5.5l-2.2-4.5L93.1,250.6z"/>
		<path class="st0" d="M132.2,327.8l-22.8-21.2l27.8-30l7.6,7l-22.7,24.5l15.3,14.2L132.2,327.8z"/>
		<path class="st0" d="M159.3,344.2l-9-5l19.9-35.8l9,5L159.3,344.2z"/>
		<path class="st0" d="M228.7,344.2c-1.2,7.1-7.4,11.3-14.7,10.1c-7.6-1.3-11.9-7.1-10.7-14.5c1.3-7.6,7.1-11.5,14.7-10.2
			C225.8,330.9,230.1,336.6,228.7,344.2z M239.2,345.7c2-11.7-6.6-22.5-19.6-24.7c-13.1-2.2-24.7,5.2-26.6,16.9
			c-2,11.6,6.6,22.3,19.5,24.5C225.6,364.6,237.2,357.4,239.2,345.7z"/>
		<path class="st0" d="M297.5,322.3l-14.3,3.5l7.8,32.3l-10.1,2.4l-7.8-32.3l-14.4,3.5l-1.8-7.5l38.8-9.4L297.5,322.3z"/>
		<path class="st0" d="M362.9,320.2L338.5,338l-24.1-33l24-17.6l4.5,6.2l-15.7,11.5l4.9,6.7l15-10.9l4.5,6.2l-15,10.9l5.8,7.9
			l16-11.7L362.9,320.2z"/>
		<path class="st0" d="M381.2,263.6l28-3.9l-6.7,10.9l-24.9,3.7l16.3,10.1l-5.4,8.7l-34.8-21.6l5.4-8.7l15.7,9.8l0.1-0.1l-8.9-20.7
			l5.9-9.5L381.2,263.6z"/>
		<path class="st0" d="M424.6,200.6l-5.5,29.7l-40.2-7.5l5.5-29.3l7.5,1.4l-3.6,19.1l8.1,1.5l3.4-18.2l7.6,1.4l-3.4,18.2l9.7,1.8
			l3.6-19.5L424.6,200.6z"/>
		<path class="st0" d="M384.3,132.6l3,14.4l32.5-6.8l2.1,10.2l-32.5,6.8l3,14.5l-7.5,1.6l-8.2-39.1L384.3,132.6z"/>
	</g>
	<g>
		<g>
			<g>
				<path class="st0" d="M237.1,137.1v-12.7c0,0,5.9-0.1,13.6,0v12.7H237.1z"/>
				<path class="st0" d="M237.1,218.4l-0.1-68.6h13.6l0.1,68.6H237.1z"/>
				<polygon class="st0" points="180.2,231.5 177.3,218.3 237.1,218.4 237.1,231.6 				"/>
				<polygon class="st0" points="307.4,231.6 310.3,218.1 250.7,218.1 250.7,231.6 				"/>
				<path class="st0" d="M161.4,147.4c0,0,39.6-10.7,75.7-10.3v12.6c0,0-32.2-1.1-72.9,10.1L161.4,147.4z"/>
				<path class="st0" d="M326.5,147.3c0,0-39.8-10.7-75.9-10.2v12.7c0,0,32.4-1.2,73.1,10L326.5,147.3z"/>
				<g>
					<path class="st0" d="M148,150.6l-2.8-12.4c0,0,5.7-1.4,13.3-3l2.8,12.4L148,150.6z"/>
					<path class="st0" d="M164,221.3l-13.2-58.5c0,0,13.3-3,13.3-3.1l13.2,58.5L164,221.3z"/>
				</g>
				<g>
					<path class="st0" d="M339.6,150.4l2.8-12.4c0,0-5.8-1.4-13.3-3l-2.8,12.4L339.6,150.4z"/>
					<path class="st0" d="M323.6,221.2l13.2-58.5c0,0-13.3-3-13.3-3.1l-13.2,58.5L323.6,221.2z"/>
				</g>
			</g>
		</g>
	</g>
	<path class="st0" d="M97.4,117.6c-2.8,0-5.3-2.4-5.3-5.2c0-2.9,2.3-5.2,5.2-5.2s5.2,2.3,5.2,5.2
		C102.6,115.2,100.2,117.6,97.4,117.6z"/>
	<path class="st0" d="M388.7,117.4c-2.8,0-5.3-2.4-5.3-5.2c0-2.9,2.3-5.2,5.2-5.2c2.9,0,5.2,2.3,5.2,5.2
		C393.9,115,391.6,117.4,388.7,117.4z"/>
</g>
</svg>
